# xmcd
# 
# Track frame offsets:
#     150
#     24862
#     53724
#     71831
#     89069
#     108907
#     139550
#     153892
#     172346
#     191236
#     211077
# 
# Disc length: 2955
# 
# Revision: 0
# Processed by: cddbd v1.5.2PL0 Copyright (c) Steve Scherf et al.
# Submitted via: fre:ac v1.0.17
# 
DISCID=970b890b
DTITLE=五十一 - 遠くはなれて
DYEAR=2006
DGENRE=Blues
TTITLE0=Amazing Grace
TTITLE1=時の旅人
TTITLE2=春来峠
TTITLE3=Hobo's Lullaby
TTITLE4=さよなら小唄
TTITLE5=故郷よ
TTITLE6=遠くはなれて
TTITLE7=朝日のあたる家
TTITLE8=Good Time CHARLIE'S Got the Blues
TTITLE9=釣りに行こう
TTITLE10=酒飲みブルース
EXTD=
EXTT0=
EXTT1=
EXTT2=
EXTT3=
EXTT4=
EXTT5=
EXTT6=
EXTT7=
EXTT8=
EXTT9=
EXTT10=
PLAYORDER=
